<svg id="Calque_1" data-name="Calque 1" xmlns="http://www.w3.org/2000/svg" viewBox="0 0 827.5 404.33"><path d="M608.56,407.19a78.64,78.64,0,0,0-14.86-5.6,51.89,51.89,0,0,0-7.78-1.45c-11.3-1.16-25.88-7.91-45.58-25.05,0,0-32.29-1.82-44.39,26.87a60.74,60.74,0,0,0-4.43,20.94c-.52,10.7.94,23.78,5.25,39.78l-.48,4.67a93.58,93.58,0,0,0-16.65,11.9c-16,14-29.89,40.68-26.4,82-2.76-8.1-13.8-30.62-8.24-51.84,2.39-10,8.8-31.11,37.9-45.61,1.91-.95,3.53-1.64,4.6-2.07,0,0-1.24-1.9-3.08-5.21-7.66-13.81-25.73-52.15-6.92-78.21,6.67-9.24,16.56-14.83,27.25-18.1l1.28-.38c26.41-7.6,57.2-1.55,57.2-1.55l-33.51-34s31.76,13.25,38.24,17.76a46.88,46.88,0,0,1,15.74,17.75,75.79,75.79,0,0,1,7.31,23.1,30.09,30.09,0,0,0,5.44,9.18,52,52,0,0,0,11.88,9.78C611,403.46,608.56,407.19,608.56,407.19Z" transform="translate(-76.7 -306.06)" fill="#d30922"/><path d="M486.64,619.11s55.44,57-7.88,91.28C478.76,710.39,513.37,673.27,486.64,619.11Z" transform="translate(-76.7 -306.06)"/><path d="M466.68,699.12s-7.34-16.4-.58-27.18,17.88-26.76,15.29-40.81-5.76-17.9-5.76-17.9,4.81,11-5.28,35.59S456,677,466.68,699.12Z" transform="translate(-76.7 -306.06)"/><path d="M448.85,680.31s-5.16-15.91,2.17-25.22,19.21-23,18.21-36.25-3.55-17.13-3.55-17.13,3.36,10.65-8.43,32.41S441.18,658.81,448.85,680.31Z" transform="translate(-76.7 -306.06)"/><path d="M426.8,654.19S445,622,421.36,576.48,397.8,516,399.29,507.66c0,0-20.3,38.91,17.8,87.76C425.56,607.11,432.47,628.3,426.8,654.19Z" transform="translate(-76.7 -306.06)" fill="#d30922"/><path d="M735,499.71s-21.26-17.51-70.77-6.15-46.5,19.95-97.38,8.37c0,0,40,32.82,87.62,9.35C654.49,511.28,699,485,735,499.71Z" transform="translate(-76.7 -306.06)" fill="#d30922"/><path d="M734.76,504.82s-23.55-12.35-55.62,5.67-42.83,18.29-48.87,17.41c0,0,28.38,13.67,62.55-14.77C701,506.78,716.06,501.34,734.76,504.82Z" transform="translate(-76.7 -306.06)" fill="#d30922"/><path d="M823.61,495.68l-.29,0c-8.65-.75-21.71,2.24-33.32,13.15.29-.52,8.81-14.9,31.11-19.76L761.55,330.34H684.69L732.64,461a35.17,35.17,0,0,0-15.75-50.24,32.82,32.82,0,0,1,18.88,58.78l29.34,79.91c13.9-3.49,34.63-11.79,67.37-30.09Zm15.91,42.4c-28.68,17.55-54,20.33-71.6,19v0l-167-.17-57.6,153.47h82l30.33-87.82H788.69L819,710.39H904.2Z" transform="translate(-76.7 -306.06)" fill="#033e59"/><path d="M449.17,456.8s-2-30.48-36.5-35.17-73.06-4.5-86.14-43.53c0,0-3.91,55.37,52.35,52.71S449.17,456.8,449.17,456.8Z" transform="translate(-76.7 -306.06)" fill="#d30922"/><path d="M465.09,449.9s7-41.18-37.31-58.43-95.73-29.33-100.66-85.41c0,0-22.87,72.39,52.8,86.82S465.09,449.9,465.09,449.9Z" transform="translate(-76.7 -306.06)" fill="#d30922"/><path d="M467.09,513.56s4-41.59,51.27-46.66,100.07-3.33,119.47-56.17c0,0,3.19,75.85-73.63,70S467.09,513.56,467.09,513.56Z" transform="translate(-76.7 -306.06)" fill="#d30922"/><path d="M502.21,349.23l-.07.37,1.28-.37Z" transform="translate(-76.7 -306.06)" fill="#d30922"/><path d="M558.08,507.66c-40.66,3.35-62,32.77-62,32.77,17.75-13.69,40.39-12.37,54.13-9.13L508.65,674a.07.07,0,0,0,0,.05l-2.92,10-7.65,26.28H404l-64.34-238-65,238H181.86L76.7,349.23h98.93l56.74,239.39q32.17-110,64.34-220c-.12,1.58-.18,3.19-.18,4.79,0,3.64,1.31,8.38,3.44,13.71,15,37.38,52.28,60.94,92.51,59.36,11.61-.45,20.45-.8,20.56-.79l17.85,61.79c-.33,1-.64,1.9-.94,2.85-8.45,27.29-4.42,56.68,6.76,76.45,20.08,35.5-5.85,78.6-8.24,82.44,23.38-32.81,24.64-44.61,27.7-59.65,1.64-8-.34-16.82-3.36-26.18l1.74-8.24c11.11,25.48,32.39,39.11,33.05,39.53-19.49-25.64-27.36-46.82-27.83-64.25-.93-9.35,4.94-23.45,4.94-23.45,13.18-25.14,39.43-36.1,58.6-39.44,19.8-3.45,38.36,3.32,38.36,3.32-16.59-.67-33.65,3.24-48,8.36-43.35,19.73-41.36,58.24-41.36,58.24C495.4,484.9,558.08,507.66,558.08,507.66Z" transform="translate(-76.7 -306.06)" fill="#d30922"/><path d="M592.32,492.7s86.53,13.8,92.9-96.09C685.22,396.61,660,478.54,592.32,492.7Z" transform="translate(-76.7 -306.06)" fill="#d30922"/><polygon points="827.5 90.55 727.69 90.55 702.56 24.28 827.5 24.28 827.5 90.55" fill="#d30922"/><path d="M904.2,449.9v50c-14.2-.52-32.07,1.56-52.32,9.85l-5.65-14.9c19.58-4.18,27.59-16.7,27.87-17.18-3.34,2.9-9.54,6.78-31,9l-14-36.79Z" transform="translate(-76.7 -306.06)" fill="#d30922"/><path d="M871.36,516.18a96.73,96.73,0,0,1,32.84-9.8v9.8Z" transform="translate(-76.7 -306.06)" fill="#d30922"/></svg>