<svg id="Calque_1" data-name="Calque 1" xmlns="http://www.w3.org/2000/svg" viewBox="0 0 605.3 459.13"><text transform="translate(89.57 433.67)" font-size="102.27" fill="#1d1d1b" font-family="Nuckle-Regular, Nuckle">EXPR<tspan x="267.73" y="0" letter-spacing="-0.01em">E</tspan><tspan x="328.48" y="0">SS</tspan></text><path d="M567.58,310.52a58.12,58.12,0,0,0-10.87-4.09,36.42,36.42,0,0,0-5.69-1.06c-8.26-.85-18.93-5.79-33.34-18.33,0,0-23.62-1.33-32.47,19.65A44.29,44.29,0,0,0,482,322c-.38,7.83.69,17.4,3.84,29.1l-.35,3.42a68.39,68.39,0,0,0-12.19,8.7c-11.67,10.23-21.86,29.76-19.3,60-2-5.92-10.1-22.4-6-37.92,1.74-7.28,6.44-22.75,27.72-33.36,1.4-.7,2.58-1.2,3.37-1.52,0,0-.91-1.39-2.25-3.81-5.61-10.1-18.83-38.15-5.07-57.21,4.88-6.76,12.11-10.84,19.94-13.24l.93-.27c19.32-5.56,41.84-1.14,41.84-1.14l-24.51-24.84s23.24,9.69,28,13a34.37,34.37,0,0,1,11.51,13,55.67,55.67,0,0,1,5.35,16.9,21.94,21.94,0,0,0,4,6.71,38.13,38.13,0,0,0,8.68,7.15C569.36,307.79,567.58,310.52,567.58,310.52Z" transform="translate(-178.53 -236.55)" fill="#d30922"/><path d="M434.63,491.2s13.34-23.58-4-56.84S413.41,390.13,414.5,384c0,0-14.84,28.46,13,64.2C433.72,456.76,438.77,472.26,434.63,491.2Z" transform="translate(-178.53 -236.55)" fill="#d30922"/><path d="M660.09,378.2s-15.55-12.81-51.77-4.5-34,14.59-71.23,6.12c0,0,29.26,24,64.09,6.84C601.18,386.66,633.75,367.43,660.09,378.2Z" transform="translate(-178.53 -236.55)" fill="#d30922"/><path d="M659.89,381.93s-17.22-9-40.68,4.16-31.33,13.37-35.75,12.73c0,0,20.76,10,45.76-10.81C635.21,383.37,646.21,379.39,659.89,381.93Z" transform="translate(-178.53 -236.55)" fill="#d30922"/><path d="M724.89,375.25l-.21,0c-6.33-.54-15.88,1.64-24.38,9.62.21-.38,6.45-10.9,22.76-14.45L679.49,254.31H623.27l35.07,95.54A25.46,25.46,0,0,0,662,336.59a25.76,25.76,0,0,0-15.21-23.49,24,24,0,0,1,13.82,43l21.46,58.45c10.16-2.55,25.32-8.62,49.28-22Zm11.64,31c-21,12.83-39.49,14.86-52.38,13.87v0L562,420.05,519.85,532.31h60L602,468.07h97.34l22.2,64.24h62.3Z" transform="translate(-178.53 -236.55)" fill="#033e59"/><path d="M451,346.81s-1.48-22.29-26.7-25.72-53.45-3.3-63-31.85c0,0-2.86,40.51,38.3,38.56S451,346.81,451,346.81Z" transform="translate(-178.53 -236.55)" fill="#d30922"/><path d="M462.64,341.76s5.15-30.12-27.29-42.74-70-21.45-73.64-62.47c0,0-16.73,52.95,38.62,63.5S462.64,341.76,462.64,341.76Z" transform="translate(-178.53 -236.55)" fill="#d30922"/><path d="M464.1,388.33s2.89-30.42,37.5-34.13,73.2-2.44,87.39-41.09c0,0,2.33,55.48-53.86,51.22S464.1,388.33,464.1,388.33Z" transform="translate(-178.53 -236.55)" fill="#d30922"/><path d="M555.7,373.07s63.3,10.09,68-70.29C623.66,302.78,605.18,362.71,555.7,373.07Z" transform="translate(-178.53 -236.55)" fill="#d30922"/><polygon points="605.3 66.24 532.29 66.24 513.91 17.76 605.3 17.76 605.3 66.24" fill="#d30922"/><path d="M783.84,341.76v36.61a91.79,91.79,0,0,0-38.28,7.2l-4.13-10.89c14.32-3.06,20.18-12.23,20.39-12.57-2.44,2.11-7,4.95-22.66,6.56L729,341.76Z" transform="translate(-178.53 -236.55)" fill="#d30922"/><path d="M759.82,390.24a70.78,70.78,0,0,1,24-7.16v7.16Z" transform="translate(-178.53 -236.55)" fill="#d30922"/><path d="M489.79,268.12l-.06.28.94-.28Z" transform="translate(-178.53 -236.55)" fill="#d30922"/><path d="M530.66,384a65.75,65.75,0,0,0-45.36,24c13-10,29.55-9,39.6-6.67L494.5,505.72a0,0,0,0,0,0,0l-2.14,7.33-5.59,19.23H417.92l-47.06-174.1-47.58,174.1H255.46L178.53,268.12H250.9l41.5,175.12Q316,362.77,339.47,282.29c-.09,1.16-.13,2.33-.13,3.51,0,2.66,1,6.13,2.51,10,11,27.34,38.24,44.57,67.67,43.42,8.49-.33,15-.59,15-.58l13.06,45.2c-.24.69-.47,1.39-.69,2.08-6.18,20-3.23,41.46,4.95,55.93,14.69,26-4.28,57.49-6,60.3,17.1-24,18-32.64,20.26-43.64,1.2-5.86-.25-12.3-2.46-19.15l1.27-6a70.38,70.38,0,0,0,24.18,28.91c-14.26-18.75-20-34.24-20.36-47-.68-6.85,3.62-17.16,3.62-17.16,9.64-18.39,28.84-26.41,42.86-28.85,14.49-2.52,28.06,2.43,28.06,2.43-12.13-.49-24.61,2.37-35.08,6.12-31.71,14.43-30.26,42.6-30.26,42.6C484.8,367.37,530.66,384,530.66,384Z" transform="translate(-178.53 -236.55)" fill="#d30922"/></svg>